<?xml version="1.0" encoding="UTF-8" standalone="no"?>
<!DOCTYPE svg PUBLIC "-//W3C//DTD SVG 1.1//EN"
 "http://www.w3.org/Graphics/SVG/1.1/DTD/svg11.dtd">
<!-- Generated by graphviz version 2.38.0 (20140413.2041)
 -->
<!-- Title: CFG for function: event_del Pages: 1 -->
<svg width="1485pt" height="2742pt"
 viewBox="0.00 0.00 1484.50 2742.00" xmlns="http://www.w3.org/2000/svg" xmlns:xlink="http://www.w3.org/1999/xlink">
<g id="graph0" class="graph" transform="scale(1 1) rotate(0) translate(4 2738)">
<title>CFG for function: event_del</title>
<polygon fill="white" stroke="none" points="-4,4 -4,-2738 1480.5,-2738 1480.5,4 -4,4"/>
<text text-anchor="middle" x="738.25" y="-7.8" font-family="Times,serif" font-size="14.00">CFG for function: event_del</text>
<!-- Node0x60600002d080 -->
<g id="node1" class="node"><title>Node0x60600002d080</title>
<polygon fill="none" stroke="black" points="25.5,-2634.5 25.5,-2733.5 677.5,-2733.5 677.5,-2634.5 25.5,-2634.5"/>
<text text-anchor="start" x="33.5" y="-2702.3" font-family="Times,serif" font-size="14.00"> call void @llvm.dbg.value(metadata %struct.event* %0, metadata !1464, metadata !DIExpression()), !dbg !1468 0</text>
<text text-anchor="start" x="33.5" y="-2687.3" font-family="Times,serif" font-size="14.00"> %2 = getelementptr inbounds %struct.event, %struct.event* %0, i64 0, i32 4, !dbg !930 0</text>
<text text-anchor="start" x="33.5" y="-2672.3" font-family="Times,serif" font-size="14.00"> %3 = load %struct.event_base*, %struct.event_base** %2, align 8, !dbg !930 0</text>
<text text-anchor="start" x="33.5" y="-2657.3" font-family="Times,serif" font-size="14.00"> %4 = icmp eq %struct.event_base* %3, null, !dbg !932 0</text>
<text text-anchor="start" x="33.5" y="-2642.3" font-family="Times,serif" font-size="14.00"> br i1 %4, label %100, label %5, !dbg !933 0</text>
</g>
<!-- Node0x60600002d6e0 -->
<g id="node2" class="node"><title>Node0x60600002d6e0</title>
<polygon fill="none" stroke="black" points="0,-23.5 0,-77.5 409,-77.5 409,-23.5 0,-23.5"/>
<text text-anchor="start" x="8" y="-46.3" font-family="Times,serif" font-size="14.00"> %101 = phi i32 [ %99, %80 ], [ &#45;1, %1 ], [ 0, %68 ], !dbg !1000 2688</text>
<text text-anchor="start" x="8" y="-31.3" font-family="Times,serif" font-size="14.00"> ret i32 %101, !dbg !1001 2688</text>
</g>
<!-- Node0x60600002d080&#45;&gt;Node0x60600002d6e0 -->
<g id="edge1" class="edge"><title>Node0x60600002d080&#45;&gt;Node0x60600002d6e0</title>
<path fill="none" stroke="black" d="M221.754,-2634.42C207.626,-2624.34 194.965,-2612.31 185.5,-2598 119.76,-2498.58 166.5,-2449.69 166.5,-2330.5 166.5,-2330.5 166.5,-2330.5 166.5,-576.5 166.5,-370.712 157.936,-317.506 188.5,-114 189.803,-105.322 191.807,-96.1025 193.961,-87.4851"/>
<polygon fill="black" stroke="black" points="197.372,-88.2752 196.525,-77.7143 190.602,-86.4982 197.372,-88.2752"/>
</g>
<!-- Node0x60600002d0e0 -->
<g id="node3" class="node"><title>Node0x60600002d0e0</title>
<polygon fill="none" stroke="black" points="195,-2408.5 195,-2597.5 878,-2597.5 878,-2408.5 195,-2408.5"/>
<text text-anchor="start" x="203" y="-2566.3" font-family="Times,serif" font-size="14.00"> call void @llvm.dbg.value(metadata %struct.event_base* %3, metadata !1465, metadata !DIExpression()), !dbg !1473 0</text>
<text text-anchor="start" x="203" y="-2551.3" font-family="Times,serif" font-size="14.00"> %6 = getelementptr inbounds %struct.event_base, %struct.event_base* %3, i64 0, i32 0, !dbg !935 0</text>
<text text-anchor="start" x="203" y="-2536.3" font-family="Times,serif" font-size="14.00"> %7 = load %struct.eventop*, %struct.eventop** %6, align 8, !dbg !935 0</text>
<text text-anchor="start" x="203" y="-2521.3" font-family="Times,serif" font-size="14.00"> call void @llvm.dbg.value(metadata %struct.eventop* %7, metadata !1466, metadata !DIExpression()), !dbg !1475 0</text>
<text text-anchor="start" x="203" y="-2506.3" font-family="Times,serif" font-size="14.00"> %8 = getelementptr inbounds %struct.event_base, %struct.event_base* %3, i64 0, i32 1, !dbg !937 0</text>
<text text-anchor="start" x="203" y="-2491.3" font-family="Times,serif" font-size="14.00"> %9 = load i8*, i8** %8, align 8, !dbg !937 0</text>
<text text-anchor="start" x="203" y="-2476.3" font-family="Times,serif" font-size="14.00"> call void @llvm.dbg.value(metadata i8* %9, metadata !1467, metadata !DIExpression()), !dbg !1477 0</text>
<text text-anchor="start" x="203" y="-2461.3" font-family="Times,serif" font-size="14.00"> %10 = getelementptr inbounds %struct.event, %struct.event* %0, i64 0, i32 7, !dbg !939 0</text>
<text text-anchor="start" x="203" y="-2446.3" font-family="Times,serif" font-size="14.00"> %11 = load i16, i16* %10, align 2, !dbg !939 0</text>
<text text-anchor="start" x="203" y="-2431.3" font-family="Times,serif" font-size="14.00"> %12 = icmp eq i16 %11, 0, !dbg !941 0</text>
<text text-anchor="start" x="203" y="-2416.3" font-family="Times,serif" font-size="14.00"> br i1 %12, label %18, label %13, !dbg !942 0</text>
</g>
<!-- Node0x60600002d080&#45;&gt;Node0x60600002d0e0 -->
<g id="edge2" class="edge"><title>Node0x60600002d080&#45;&gt;Node0x60600002d0e0</title>
<path fill="none" stroke="black" d="M402.052,-2634.09C411.614,-2624.84 421.934,-2614.85 432.457,-2604.67"/>
<polygon fill="black" stroke="black" points="435.014,-2607.06 439.767,-2597.6 430.147,-2602.03 435.014,-2607.06"/>
</g>
<!-- Node0x60600002d200 -->
<g id="node4" class="node"><title>Node0x60600002d200</title>
<polygon fill="none" stroke="black" points="259,-2060.5 259,-2159.5 788,-2159.5 788,-2060.5 259,-2060.5"/>
<text text-anchor="start" x="267" y="-2128.3" font-family="Times,serif" font-size="14.00"> %19 = getelementptr inbounds %struct.event, %struct.event* %0, i64 0, i32 14, !dbg !949 0</text>
<text text-anchor="start" x="267" y="-2113.3" font-family="Times,serif" font-size="14.00"> %20 = load i32, i32* %19, align 4, !dbg !949 0</text>
<text text-anchor="start" x="267" y="-2098.3" font-family="Times,serif" font-size="14.00"> %21 = and i32 %20, 1, !dbg !951 0</text>
<text text-anchor="start" x="267" y="-2083.3" font-family="Times,serif" font-size="14.00"> %22 = icmp eq i32 %21, 0, !dbg !951 0</text>
<text text-anchor="start" x="267" y="-2068.3" font-family="Times,serif" font-size="14.00"> br i1 %22, label %25, label %23, !dbg !952 0</text>
</g>
<!-- Node0x60600002d0e0&#45;&gt;Node0x60600002d200 -->
<g id="edge3" class="edge"><title>Node0x60600002d0e0&#45;&gt;Node0x60600002d200</title>
<path fill="none" stroke="black" d="M429.959,-2408.26C421.764,-2396.86 414.678,-2384.71 409.5,-2372 380.577,-2301 428.501,-2220.27 470.799,-2167.64"/>
<polygon fill="black" stroke="black" points="473.624,-2169.71 477.257,-2159.76 468.211,-2165.27 473.624,-2169.71"/>
</g>
<!-- Node0x60600002d140 -->
<g id="node5" class="node"><title>Node0x60600002d140</title>
<polygon fill="none" stroke="black" points="418.5,-2287.5 418.5,-2371.5 940.5,-2371.5 940.5,-2287.5 418.5,-2287.5"/>
<text text-anchor="start" x="426.5" y="-2340.3" font-family="Times,serif" font-size="14.00"> %14 = getelementptr inbounds %struct.event, %struct.event* %0, i64 0, i32 8, !dbg !943 0</text>
<text text-anchor="start" x="426.5" y="-2325.3" font-family="Times,serif" font-size="14.00"> %15 = load i16*, i16** %14, align 8, !dbg !943 0</text>
<text text-anchor="start" x="426.5" y="-2310.3" font-family="Times,serif" font-size="14.00"> %16 = icmp eq i16* %15, null, !dbg !944 0</text>
<text text-anchor="start" x="426.5" y="-2295.3" font-family="Times,serif" font-size="14.00"> br i1 %16, label %18, label %17, !dbg !945 0</text>
</g>
<!-- Node0x60600002d0e0&#45;&gt;Node0x60600002d140 -->
<g id="edge4" class="edge"><title>Node0x60600002d0e0&#45;&gt;Node0x60600002d140</title>
<path fill="none" stroke="black" d="M614.486,-2408.47C622.776,-2398.53 630.948,-2388.73 638.553,-2379.61"/>
<polygon fill="black" stroke="black" points="641.363,-2381.7 645.079,-2371.78 635.987,-2377.22 641.363,-2381.7"/>
</g>
<!-- Node0x60600002d2c0 -->
<g id="node7" class="node"><title>Node0x60600002d2c0</title>
<polygon fill="none" stroke="black" points="276.5,-1833.5 276.5,-1917.5 608.5,-1917.5 608.5,-1833.5 276.5,-1833.5"/>
<text text-anchor="start" x="284.5" y="-1886.3" font-family="Times,serif" font-size="14.00"> %26 = phi i32 [ %20, %18 ], [ %24, %23 ], !dbg !954 0</text>
<text text-anchor="start" x="284.5" y="-1871.3" font-family="Times,serif" font-size="14.00"> %27 = and i32 %26, 8, !dbg !956 0</text>
<text text-anchor="start" x="284.5" y="-1856.3" font-family="Times,serif" font-size="14.00"> %28 = icmp eq i32 %27, 0, !dbg !956 0</text>
<text text-anchor="start" x="284.5" y="-1841.3" font-family="Times,serif" font-size="14.00"> br i1 %28, label %68, label %29, !dbg !957 0</text>
</g>
<!-- Node0x60600002d200&#45;&gt;Node0x60600002d2c0 -->
<g id="edge8" class="edge"><title>Node0x60600002d200&#45;&gt;Node0x60600002d2c0</title>
<path fill="none" stroke="black" d="M338.567,-2060.4C324.2,-2050.45 311.441,-2038.45 301.5,-2024 283.868,-1998.37 285.662,-1980.78 301.5,-1954 308.356,-1942.41 317.63,-1932.43 328.169,-1923.88"/>
<polygon fill="black" stroke="black" points="330.591,-1926.44 336.455,-1917.61 326.368,-1920.85 330.591,-1926.44"/>
</g>
<!-- Node0x60600002d260 -->
<g id="node8" class="node"><title>Node0x60600002d260</title>
<polygon fill="none" stroke="black" points="311,-1954.5 311,-2023.5 1020,-2023.5 1020,-1954.5 311,-1954.5"/>
<text text-anchor="start" x="319" y="-1992.3" font-family="Times,serif" font-size="14.00"> tail call fastcc void @event_queue_remove(%struct.event_base* nonnull %3, %struct.event* nonnull %0, i32 1), !dbg !953 0</text>
<text text-anchor="start" x="319" y="-1977.3" font-family="Times,serif" font-size="14.00"> %24 = load i32, i32* %19, align 4, !dbg !954 0</text>
<text text-anchor="start" x="319" y="-1962.3" font-family="Times,serif" font-size="14.00"> br label %25, !dbg !953 0</text>
</g>
<!-- Node0x60600002d200&#45;&gt;Node0x60600002d260 -->
<g id="edge9" class="edge"><title>Node0x60600002d200&#45;&gt;Node0x60600002d260</title>
<path fill="none" stroke="black" d="M581.667,-2060.25C593.615,-2050.24 606.065,-2039.81 617.602,-2030.14"/>
<polygon fill="black" stroke="black" points="620.009,-2032.69 625.425,-2023.58 615.513,-2027.32 620.009,-2032.69"/>
</g>
<!-- Node0x60600002d140&#45;&gt;Node0x60600002d200 -->
<g id="edge5" class="edge"><title>Node0x60600002d140&#45;&gt;Node0x60600002d200</title>
<path fill="none" stroke="black" d="M580.115,-2287.31C565.566,-2277.37 552.232,-2265.37 542.5,-2251 526.52,-2227.41 521.129,-2196.4 520.009,-2169.57"/>
<polygon fill="black" stroke="black" points="523.507,-2169.43 519.776,-2159.51 516.509,-2169.59 523.507,-2169.43"/>
</g>
<!-- Node0x60600002d1a0 -->
<g id="node6" class="node"><title>Node0x60600002d1a0</title>
<polygon fill="none" stroke="black" points="552,-2196.5 552,-2250.5 807,-2250.5 807,-2196.5 552,-2196.5"/>
<text text-anchor="start" x="560" y="-2219.3" font-family="Times,serif" font-size="14.00"> store i16 0, i16* %15, align 2, !dbg !946 0</text>
<text text-anchor="start" x="560" y="-2204.3" font-family="Times,serif" font-size="14.00"> br label %18, !dbg !948 0</text>
</g>
<!-- Node0x60600002d140&#45;&gt;Node0x60600002d1a0 -->
<g id="edge6" class="edge"><title>Node0x60600002d140&#45;&gt;Node0x60600002d1a0</title>
<path fill="none" stroke="black" d="M679.5,-2287.4C679.5,-2278.6 679.5,-2269.36 679.5,-2260.76"/>
<polygon fill="black" stroke="black" points="683,-2260.66 679.5,-2250.66 676,-2260.66 683,-2260.66"/>
</g>
<!-- Node0x60600002d1a0&#45;&gt;Node0x60600002d200 -->
<g id="edge7" class="edge"><title>Node0x60600002d1a0&#45;&gt;Node0x60600002d200</title>
<path fill="none" stroke="black" d="M642.925,-2196.36C629.931,-2187.07 614.777,-2176.24 599.712,-2165.47"/>
<polygon fill="black" stroke="black" points="601.537,-2162.47 591.366,-2159.51 597.467,-2168.17 601.537,-2162.47"/>
</g>
<!-- Node0x60600002d560 -->
<g id="node9" class="node"><title>Node0x60600002d560</title>
<polygon fill="none" stroke="black" points="281.5,-777.5 281.5,-861.5 613.5,-861.5 613.5,-777.5 281.5,-777.5"/>
<text text-anchor="start" x="289.5" y="-830.3" font-family="Times,serif" font-size="14.00"> %69 = phi i32 [ %26, %25 ], [ %67, %60 ], !dbg !980 0</text>
<text text-anchor="start" x="289.5" y="-815.3" font-family="Times,serif" font-size="14.00"> %70 = and i32 %69, 2, !dbg !983 0</text>
<text text-anchor="start" x="289.5" y="-800.3" font-family="Times,serif" font-size="14.00"> %71 = icmp eq i32 %70, 0, !dbg !983 0</text>
<text text-anchor="start" x="289.5" y="-785.3" font-family="Times,serif" font-size="14.00"> br i1 %71, label %100, label %72, !dbg !984 0</text>
</g>
<!-- Node0x60600002d2c0&#45;&gt;Node0x60600002d560 -->
<g id="edge11" class="edge"><title>Node0x60600002d2c0&#45;&gt;Node0x60600002d560</title>
<path fill="none" stroke="black" d="M392.752,-1833.19C345.784,-1789.26 282.5,-1715.12 282.5,-1634.5 282.5,-1634.5 282.5,-1634.5 282.5,-1188 282.5,-1065.1 360.253,-937.753 409.01,-869.981"/>
<polygon fill="black" stroke="black" points="412.042,-871.762 415.098,-861.618 406.383,-867.642 412.042,-871.762"/>
</g>
<!-- Node0x60600002d320 -->
<g id="node10" class="node"><title>Node0x60600002d320</title>
<polygon fill="none" stroke="black" points="466.5,-1727.5 466.5,-1796.5 738.5,-1796.5 738.5,-1727.5 466.5,-1727.5"/>
<text text-anchor="start" x="474.5" y="-1765.3" font-family="Times,serif" font-size="14.00"> %30 = and i32 %26, 16, !dbg !958 0</text>
<text text-anchor="start" x="474.5" y="-1750.3" font-family="Times,serif" font-size="14.00"> %31 = icmp eq i32 %30, 0, !dbg !958 0</text>
<text text-anchor="start" x="474.5" y="-1735.3" font-family="Times,serif" font-size="14.00"> br i1 %31, label %32, label %37, !dbg !968 0</text>
</g>
<!-- Node0x60600002d2c0&#45;&gt;Node0x60600002d320 -->
<g id="edge12" class="edge"><title>Node0x60600002d2c0&#45;&gt;Node0x60600002d320</title>
<path fill="none" stroke="black" d="M501.624,-1833.3C516.134,-1823.19 531.631,-1812.39 546.014,-1802.36"/>
<polygon fill="black" stroke="black" points="548.135,-1805.15 554.338,-1796.56 544.132,-1799.41 548.135,-1805.15"/>
</g>
<!-- Node0x60600002d260&#45;&gt;Node0x60600002d2c0 -->
<g id="edge10" class="edge"><title>Node0x60600002d260&#45;&gt;Node0x60600002d2c0</title>
<path fill="none" stroke="black" d="M598.29,-1954.4C577.98,-1944.24 555.328,-1932.91 533.727,-1922.11"/>
<polygon fill="black" stroke="black" points="535.053,-1918.86 524.543,-1917.52 531.922,-1925.12 535.053,-1918.86"/>
</g>
<!-- Node0x60600002d560&#45;&gt;Node0x60600002d6e0 -->
<g id="edge21" class="edge"><title>Node0x60600002d560&#45;&gt;Node0x60600002d6e0</title>
<path fill="none" stroke="black" d="M368.727,-777.473C317.354,-746.024 254.317,-697.435 223.5,-635 175.804,-538.368 194.234,-199.685 201.846,-87.7303"/>
<polygon fill="black" stroke="black" points="205.347,-87.8374 202.546,-77.6194 198.363,-87.3537 205.347,-87.8374"/>
</g>
<!-- Node0x60600002d5c0 -->
<g id="node16" class="node"><title>Node0x60600002d5c0</title>
<polygon fill="none" stroke="black" points="385,-671.5 385,-740.5 684,-740.5 684,-671.5 385,-671.5"/>
<text text-anchor="start" x="393" y="-709.3" font-family="Times,serif" font-size="14.00"> %73 = and i32 %69, 16, !dbg !985 0</text>
<text text-anchor="start" x="393" y="-694.3" font-family="Times,serif" font-size="14.00"> %74 = icmp eq i32 %73, 0, !dbg !985 0</text>
<text text-anchor="start" x="393" y="-679.3" font-family="Times,serif" font-size="14.00"> br i1 %74, label %75, label %80, !dbg !988 12198</text>
</g>
<!-- Node0x60600002d560&#45;&gt;Node0x60600002d5c0 -->
<g id="edge22" class="edge"><title>Node0x60600002d560&#45;&gt;Node0x60600002d5c0</title>
<path fill="none" stroke="black" d="M479.648,-777.298C486.911,-767.99 494.628,-758.1 501.909,-748.769"/>
<polygon fill="black" stroke="black" points="504.781,-750.778 508.173,-740.741 499.262,-746.472 504.781,-750.778"/>
</g>
<!-- Node0x60600002d380 -->
<g id="node11" class="node"><title>Node0x60600002d380</title>
<polygon fill="none" stroke="black" points="310.5,-1576.5 310.5,-1690.5 894.5,-1690.5 894.5,-1576.5 310.5,-1576.5"/>
<text text-anchor="start" x="318.5" y="-1659.3" font-family="Times,serif" font-size="14.00"> %33 = getelementptr inbounds %struct.event_base, %struct.event_base* %3, i64 0, i32 2, !dbg !969 0</text>
<text text-anchor="start" x="318.5" y="-1644.3" font-family="Times,serif" font-size="14.00"> %34 = load i32, i32* %33, align 8, !dbg !970 0</text>
<text text-anchor="start" x="318.5" y="-1629.3" font-family="Times,serif" font-size="14.00"> %35 = add i32 %34, &#45;1, !dbg !970 0</text>
<text text-anchor="start" x="318.5" y="-1614.3" font-family="Times,serif" font-size="14.00"> store i32 %35, i32* %33, align 8, !dbg !970 0</text>
<text text-anchor="start" x="318.5" y="-1599.3" font-family="Times,serif" font-size="14.00"> %36 = load i32, i32* %19, align 4, !dbg !971 0</text>
<text text-anchor="start" x="318.5" y="-1584.3" font-family="Times,serif" font-size="14.00"> br label %37, !dbg !972 0</text>
</g>
<!-- Node0x60600002d320&#45;&gt;Node0x60600002d380 -->
<g id="edge13" class="edge"><title>Node0x60600002d320&#45;&gt;Node0x60600002d380</title>
<path fill="none" stroke="black" d="M602.5,-1727.43C602.5,-1719.15 602.5,-1710 602.5,-1700.76"/>
<polygon fill="black" stroke="black" points="606,-1700.73 602.5,-1690.73 599,-1700.73 606,-1700.73"/>
</g>
<!-- Node0x60600002d3e0 -->
<g id="node12" class="node"><title>Node0x60600002d3e0</title>
<polygon fill="none" stroke="black" points="470.5,-1305.5 470.5,-1539.5 1054.5,-1539.5 1054.5,-1305.5 470.5,-1305.5"/>
<text text-anchor="start" x="478.5" y="-1508.3" font-family="Times,serif" font-size="14.00"> %38 = phi i32 [ %36, %32 ], [ %26, %29 ], !dbg !971 0</text>
<text text-anchor="start" x="478.5" y="-1493.3" font-family="Times,serif" font-size="14.00"> %39 = and i32 %38, &#45;9, !dbg !971 0</text>
<text text-anchor="start" x="478.5" y="-1478.3" font-family="Times,serif" font-size="14.00"> store i32 %39, i32* %19, align 4, !dbg !971 0</text>
<text text-anchor="start" x="478.5" y="-1463.3" font-family="Times,serif" font-size="14.00"> %40 = getelementptr inbounds %struct.event_base, %struct.event_base* %3, i64 0, i32 3, !dbg !973 0</text>
<text text-anchor="start" x="478.5" y="-1448.3" font-family="Times,serif" font-size="14.00"> %41 = load i32, i32* %40, align 4, !dbg !975 0</text>
<text text-anchor="start" x="478.5" y="-1433.3" font-family="Times,serif" font-size="14.00"> %42 = add i32 %41, &#45;1, !dbg !975 0</text>
<text text-anchor="start" x="478.5" y="-1418.3" font-family="Times,serif" font-size="14.00"> store i32 %42, i32* %40, align 4, !dbg !975 0</text>
<text text-anchor="start" x="478.5" y="-1403.3" font-family="Times,serif" font-size="14.00"> %43 = getelementptr inbounds %struct.event, %struct.event* %0, i64 0, i32 1, i32 0, !dbg !976 0</text>
<text text-anchor="start" x="478.5" y="-1388.3" font-family="Times,serif" font-size="14.00"> %44 = load %struct.event*, %struct.event** %43, align 8, !dbg !976 0</text>
<text text-anchor="start" x="478.5" y="-1373.3" font-family="Times,serif" font-size="14.00"> %45 = icmp eq %struct.event* %44, null, !dbg !976 0</text>
<text text-anchor="start" x="478.5" y="-1358.3" font-family="Times,serif" font-size="14.00"> %46 = getelementptr inbounds %struct.event, %struct.event* %0, i64 0, i32 1, i32 1, !dbg !976 0</text>
<text text-anchor="start" x="478.5" y="-1343.3" font-family="Times,serif" font-size="14.00"> %47 = bitcast %struct.event*** %46 to i64*, !dbg !976 0</text>
<text text-anchor="start" x="478.5" y="-1328.3" font-family="Times,serif" font-size="14.00"> %48 = load i64, i64* %47, align 8, !dbg !976 0</text>
<text text-anchor="start" x="478.5" y="-1313.3" font-family="Times,serif" font-size="14.00"> br i1 %45, label %51, label %49, !dbg !979 0</text>
</g>
<!-- Node0x60600002d320&#45;&gt;Node0x60600002d3e0 -->
<g id="edge14" class="edge"><title>Node0x60600002d320&#45;&gt;Node0x60600002d3e0</title>
<path fill="none" stroke="black" d="M738.624,-1745.91C808.069,-1735.12 882.313,-1717.68 903.5,-1691 937.686,-1647.95 920.315,-1595.36 887.844,-1548.24"/>
<polygon fill="black" stroke="black" points="890.494,-1545.93 881.84,-1539.82 884.794,-1549.99 890.494,-1545.93"/>
</g>
<!-- Node0x60600002d380&#45;&gt;Node0x60600002d3e0 -->
<g id="edge15" class="edge"><title>Node0x60600002d380&#45;&gt;Node0x60600002d3e0</title>
<path fill="none" stroke="black" d="M645.377,-1576.49C652.316,-1567.43 659.734,-1557.74 667.341,-1547.8"/>
<polygon fill="black" stroke="black" points="670.178,-1549.85 673.477,-1539.79 664.619,-1545.6 670.178,-1549.85"/>
</g>
<!-- Node0x60600002d4a0 -->
<g id="node13" class="node"><title>Node0x60600002d4a0</title>
<polygon fill="none" stroke="black" points="310.5,-1109.5 310.5,-1268.5 894.5,-1268.5 894.5,-1109.5 310.5,-1109.5"/>
<text text-anchor="start" x="318.5" y="-1237.3" font-family="Times,serif" font-size="14.00"> %52 = getelementptr inbounds %struct.event_base, %struct.event_base* %3, i64 0, i32 6, !dbg !976 0</text>
<text text-anchor="start" x="318.5" y="-1222.3" font-family="Times,serif" font-size="14.00"> %53 = load %struct.anon.0**, %struct.anon.0*** %52, align 8, !dbg !976 0</text>
<text text-anchor="start" x="318.5" y="-1207.3" font-family="Times,serif" font-size="14.00"> %54 = getelementptr inbounds %struct.event, %struct.event* %0, i64 0, i32 10, !dbg !976 0</text>
<text text-anchor="start" x="318.5" y="-1192.3" font-family="Times,serif" font-size="14.00"> %55 = load i32, i32* %54, align 8, !dbg !976 0</text>
<text text-anchor="start" x="318.5" y="-1177.3" font-family="Times,serif" font-size="14.00"> %56 = sext i32 %55 to i64, !dbg !976 0</text>
<text text-anchor="start" x="318.5" y="-1162.3" font-family="Times,serif" font-size="14.00"> %57 = getelementptr %struct.anon.0*, %struct.anon.0** %53, i64 %56, !dbg !976 0</text>
<text text-anchor="start" x="318.5" y="-1147.3" font-family="Times,serif" font-size="14.00"> %58 = load %struct.anon.0*, %struct.anon.0** %57, align 8, !dbg !976 0</text>
<text text-anchor="start" x="318.5" y="-1132.3" font-family="Times,serif" font-size="14.00"> %59 = getelementptr inbounds %struct.anon.0, %struct.anon.0* %58, i64 0, i32 1, !dbg !976 0</text>
<text text-anchor="start" x="318.5" y="-1117.3" font-family="Times,serif" font-size="14.00"> br label %60 0</text>
</g>
<!-- Node0x60600002d3e0&#45;&gt;Node0x60600002d4a0 -->
<g id="edge16" class="edge"><title>Node0x60600002d3e0&#45;&gt;Node0x60600002d4a0</title>
<path fill="none" stroke="black" d="M682.266,-1305.41C675.699,-1295.91 669.134,-1286.41 662.749,-1277.17"/>
<polygon fill="black" stroke="black" points="665.505,-1275 656.94,-1268.77 659.746,-1278.98 665.505,-1275"/>
</g>
<!-- Node0x60600002d440 -->
<g id="node14" class="node"><title>Node0x60600002d440</title>
<polygon fill="none" stroke="black" points="912.5,-1162 912.5,-1216 1476.5,-1216 1476.5,-1162 912.5,-1162"/>
<text text-anchor="start" x="920.5" y="-1184.8" font-family="Times,serif" font-size="14.00"> %50 = getelementptr inbounds %struct.event, %struct.event* %44, i64 0, i32 1, i32 1, !dbg !976 0</text>
<text text-anchor="start" x="920.5" y="-1169.8" font-family="Times,serif" font-size="14.00"> br label %60, !dbg !976 0</text>
</g>
<!-- Node0x60600002d3e0&#45;&gt;Node0x60600002d440 -->
<g id="edge17" class="edge"><title>Node0x60600002d3e0&#45;&gt;Node0x60600002d440</title>
<path fill="none" stroke="black" d="M979.133,-1305.41C1037.46,-1274.16 1095.72,-1242.93 1136.91,-1220.86"/>
<polygon fill="black" stroke="black" points="1138.8,-1223.82 1145.96,-1216.01 1135.49,-1217.65 1138.8,-1223.82"/>
</g>
<!-- Node0x60600002d500 -->
<g id="node15" class="node"><title>Node0x60600002d500</title>
<polygon fill="none" stroke="black" points="427.5,-898.5 427.5,-1072.5 777.5,-1072.5 777.5,-898.5 427.5,-898.5"/>
<text text-anchor="start" x="435.5" y="-1041.3" font-family="Times,serif" font-size="14.00"> %61 = phi %struct.event*** [ %50, %49 ], [ %59, %51 ] 0</text>
<text text-anchor="start" x="435.5" y="-1026.3" font-family="Times,serif" font-size="14.00"> %62 = bitcast %struct.event*** %61 to i64*, !dbg !976 0</text>
<text text-anchor="start" x="435.5" y="-1011.3" font-family="Times,serif" font-size="14.00"> store i64 %48, i64* %62, align 8, !dbg !976 0</text>
<text text-anchor="start" x="435.5" y="-996.3" font-family="Times,serif" font-size="14.00"> %63 = bitcast %struct.event** %43 to i64*, !dbg !979 0</text>
<text text-anchor="start" x="435.5" y="-981.3" font-family="Times,serif" font-size="14.00"> %64 = load i64, i64* %63, align 8, !dbg !979 0</text>
<text text-anchor="start" x="435.5" y="-966.3" font-family="Times,serif" font-size="14.00"> %65 = bitcast %struct.event*** %46 to i64**, !dbg !979 0</text>
<text text-anchor="start" x="435.5" y="-951.3" font-family="Times,serif" font-size="14.00"> %66 = load i64*, i64** %65, align 8, !dbg !979 0</text>
<text text-anchor="start" x="435.5" y="-936.3" font-family="Times,serif" font-size="14.00"> store i64 %64, i64* %66, align 8, !dbg !979 0</text>
<text text-anchor="start" x="435.5" y="-921.3" font-family="Times,serif" font-size="14.00"> %67 = load i32, i32* %19, align 4, !dbg !980 0</text>
<text text-anchor="start" x="435.5" y="-906.3" font-family="Times,serif" font-size="14.00"> br label %68, !dbg !982 0</text>
</g>
<!-- Node0x60600002d4a0&#45;&gt;Node0x60600002d500 -->
<g id="edge19" class="edge"><title>Node0x60600002d4a0&#45;&gt;Node0x60600002d500</title>
<path fill="none" stroke="black" d="M602.5,-1109.23C602.5,-1100.49 602.5,-1091.51 602.5,-1082.59"/>
<polygon fill="black" stroke="black" points="606,-1082.55 602.5,-1072.55 599,-1082.55 606,-1082.55"/>
</g>
<!-- Node0x60600002d440&#45;&gt;Node0x60600002d500 -->
<g id="edge18" class="edge"><title>Node0x60600002d440&#45;&gt;Node0x60600002d500</title>
<path fill="none" stroke="black" d="M1118.02,-1161.97C1034.8,-1133.64 898.73,-1087.33 787.28,-1049.39"/>
<polygon fill="black" stroke="black" points="788.194,-1046.01 777.6,-1046.1 785.938,-1052.63 788.194,-1046.01"/>
</g>
<!-- Node0x60600002d500&#45;&gt;Node0x60600002d560 -->
<g id="edge20" class="edge"><title>Node0x60600002d500&#45;&gt;Node0x60600002d560</title>
<path fill="none" stroke="black" d="M520.915,-898.178C511.57,-888.29 502.305,-878.487 493.665,-869.346"/>
<polygon fill="black" stroke="black" points="495.979,-866.698 486.566,-861.834 490.891,-871.506 495.979,-866.698"/>
</g>
<!-- Node0x60600002d620 -->
<g id="node17" class="node"><title>Node0x60600002d620</title>
<polygon fill="none" stroke="black" points="232.5,-520.5 232.5,-634.5 836.5,-634.5 836.5,-520.5 232.5,-520.5"/>
<text text-anchor="start" x="240.5" y="-603.3" font-family="Times,serif" font-size="14.00"> %76 = getelementptr inbounds %struct.event_base, %struct.event_base* %3, i64 0, i32 2, !dbg !989 5693</text>
<text text-anchor="start" x="240.5" y="-588.3" font-family="Times,serif" font-size="14.00"> %77 = load i32, i32* %76, align 8, !dbg !990 5693</text>
<text text-anchor="start" x="240.5" y="-573.3" font-family="Times,serif" font-size="14.00"> %78 = add i32 %77, &#45;1, !dbg !990 5693</text>
<text text-anchor="start" x="240.5" y="-558.3" font-family="Times,serif" font-size="14.00"> store i32 %78, i32* %76, align 8, !dbg !990 5693</text>
<text text-anchor="start" x="240.5" y="-543.3" font-family="Times,serif" font-size="14.00"> %79 = load i32, i32* %19, align 4, !dbg !991 5693</text>
<text text-anchor="start" x="240.5" y="-528.3" font-family="Times,serif" font-size="14.00"> br label %80, !dbg !992 5693</text>
</g>
<!-- Node0x60600002d5c0&#45;&gt;Node0x60600002d620 -->
<g id="edge23" class="edge"><title>Node0x60600002d5c0&#45;&gt;Node0x60600002d620</title>
<path fill="none" stroke="black" d="M534.5,-671.432C534.5,-663.154 534.5,-653.999 534.5,-644.758"/>
<polygon fill="black" stroke="black" points="538,-644.734 534.5,-634.734 531,-644.734 538,-644.734"/>
</g>
<!-- Node0x60600002d680 -->
<g id="node18" class="node"><title>Node0x60600002d680</title>
<polygon fill="none" stroke="black" points="233,-114.5 233,-483.5 872,-483.5 872,-114.5 233,-114.5"/>
<text text-anchor="start" x="241" y="-452.3" font-family="Times,serif" font-size="14.00"> %81 = phi i32 [ %79, %75 ], [ %69, %72 ], !dbg !991 5693</text>
<text text-anchor="start" x="241" y="-437.3" font-family="Times,serif" font-size="14.00"> %82 = and i32 %81, &#45;3, !dbg !991 5693</text>
<text text-anchor="start" x="241" y="-422.3" font-family="Times,serif" font-size="14.00"> store i32 %82, i32* %19, align 4, !dbg !991 5693</text>
<text text-anchor="start" x="241" y="-407.3" font-family="Times,serif" font-size="14.00"> %83 = getelementptr inbounds %struct.event, %struct.event* %0, i64 0, i32 0, i32 0, !dbg !993 2688</text>
<text text-anchor="start" x="241" y="-392.3" font-family="Times,serif" font-size="14.00"> %84 = load %struct.event*, %struct.event** %83, align 8, !dbg !993 2688</text>
<text text-anchor="start" x="241" y="-377.3" font-family="Times,serif" font-size="14.00"> %85 = icmp eq %struct.event* %84, null, !dbg !993 2688</text>
<text text-anchor="start" x="241" y="-362.3" font-family="Times,serif" font-size="14.00"> %86 = getelementptr inbounds %struct.event, %struct.event* %0, i64 0, i32 0, i32 1, !dbg !993 2688</text>
<text text-anchor="start" x="241" y="-347.3" font-family="Times,serif" font-size="14.00"> %87 = bitcast %struct.event*** %86 to i64*, !dbg !993 2688</text>
<text text-anchor="start" x="241" y="-332.3" font-family="Times,serif" font-size="14.00"> %88 = load i64, i64* %87, align 8, !dbg !993 2688</text>
<text text-anchor="start" x="241" y="-317.3" font-family="Times,serif" font-size="14.00"> %89 = getelementptr inbounds %struct.event, %struct.event* %84, i64 0, i32 0, i32 1, !dbg !993 2688</text>
<text text-anchor="start" x="241" y="-302.3" font-family="Times,serif" font-size="14.00"> %90 = getelementptr inbounds %struct.event_base, %struct.event_base* %3, i64 0, i32 9, i32 1, !dbg !993 2688</text>
<text text-anchor="start" x="241" y="-287.3" font-family="Times,serif" font-size="14.00"> %91 = select i1 %85, %struct.event*** %90, %struct.event*** %89, !dbg !996 2688</text>
<text text-anchor="start" x="241" y="-272.3" font-family="Times,serif" font-size="14.00"> %92 = bitcast %struct.event*** %91 to i64*, !dbg !993 2688</text>
<text text-anchor="start" x="241" y="-257.3" font-family="Times,serif" font-size="14.00"> store i64 %88, i64* %92, align 8, !dbg !993 2688</text>
<text text-anchor="start" x="241" y="-242.3" font-family="Times,serif" font-size="14.00"> %93 = bitcast %struct.event* %0 to i64*, !dbg !996 2688</text>
<text text-anchor="start" x="241" y="-227.3" font-family="Times,serif" font-size="14.00"> %94 = load i64, i64* %93, align 8, !dbg !996 2688</text>
<text text-anchor="start" x="241" y="-212.3" font-family="Times,serif" font-size="14.00"> %95 = bitcast %struct.event*** %86 to i64**, !dbg !996 2688</text>
<text text-anchor="start" x="241" y="-197.3" font-family="Times,serif" font-size="14.00"> %96 = load i64*, i64** %95, align 8, !dbg !996 2688</text>
<text text-anchor="start" x="241" y="-182.3" font-family="Times,serif" font-size="14.00"> store i64 %94, i64* %96, align 8, !dbg !996 2688</text>
<text text-anchor="start" x="241" y="-167.3" font-family="Times,serif" font-size="14.00"> %97 = getelementptr inbounds %struct.eventop, %struct.eventop* %7, i64 0, i32 3, !dbg !997 2688</text>
<text text-anchor="start" x="241" y="-152.3" font-family="Times,serif" font-size="14.00"> %98 = load i32 (i8*, %struct.event*)*, i32 (i8*, %struct.event*)** %97, align 8, !dbg !997 2688</text>
<text text-anchor="start" x="241" y="-137.3" font-family="Times,serif" font-size="14.00"> %99 = tail call i32 %98(i8* %9, %struct.event* nonnull %0) #4, !dbg !998 2688</text>
<text text-anchor="start" x="241" y="-122.3" font-family="Times,serif" font-size="14.00"> br label %100, !dbg !999 2688</text>
</g>
<!-- Node0x60600002d5c0&#45;&gt;Node0x60600002d680 -->
<g id="edge24" class="edge"><title>Node0x60600002d5c0&#45;&gt;Node0x60600002d680</title>
<path fill="none" stroke="black" d="M684.017,-689.144C753.084,-678.426 824.455,-661.309 845.5,-635 883.37,-587.659 870.503,-537.869 834.443,-491.578"/>
<polygon fill="black" stroke="black" points="836.975,-489.142 827.958,-483.58 831.538,-493.551 836.975,-489.142"/>
</g>
<!-- Node0x60600002d620&#45;&gt;Node0x60600002d680 -->
<g id="edge25" class="edge"><title>Node0x60600002d620&#45;&gt;Node0x60600002d680</title>
<path fill="none" stroke="black" d="M538.164,-520.213C538.7,-511.98 539.276,-503.14 539.877,-493.902"/>
<polygon fill="black" stroke="black" points="543.382,-493.938 540.539,-483.732 536.397,-493.483 543.382,-493.938"/>
</g>
<!-- Node0x60600002d680&#45;&gt;Node0x60600002d6e0 -->
<g id="edge26" class="edge"><title>Node0x60600002d680&#45;&gt;Node0x60600002d6e0</title>
<path fill="none" stroke="black" d="M293.216,-114.34C277.254,-103.034 262.564,-92.6285 249.923,-83.6743"/>
<polygon fill="black" stroke="black" points="251.691,-80.6379 241.508,-77.7138 247.645,-86.3501 251.691,-80.6379"/>
</g>
</g>
</svg>
